<?xml version="1.0" encoding="UTF-8" standalone="no"?>
<!-- Created with Inkscape (http://www.inkscape.org/) -->

<svg
   width="1710"
   height="1122"
   viewBox="0 0 1710 1122"
   version="1.1"
   id="svg1"
   inkscape:version="1.4.3 (0d15f75, 2025-12-25)"
   sodipodi:docname="PLACEHOLDERBG.svg"
   xmlns:inkscape="http://www.inkscape.org/namespaces/inkscape"
   xmlns:sodipodi="http://sodipodi.sourceforge.net/DTD/sodipodi-0.dtd"
   xmlns="http://www.w3.org/2000/svg"
   xmlns:svg="http://www.w3.org/2000/svg">
  <sodipodi:namedview
     id="namedview1"
     pagecolor="#505050"
     bordercolor="#ffffff"
     borderopacity="1"
     inkscape:showpageshadow="0"
     inkscape:pageopacity="0"
     inkscape:pagecheckerboard="1"
     inkscape:deskcolor="#505050"
     inkscape:document-units="mm"
     inkscape:zoom="0.52318669"
     inkscape:cx="836.22158"
     inkscape:cy="555.25113"
     inkscape:window-width="1710"
     inkscape:window-height="960"
     inkscape:window-x="0"
     inkscape:window-y="40"
     inkscape:window-maximized="0"
     inkscape:current-layer="layer1" />
  <defs
     id="defs1" />
  <g
     inkscape:label="Layer 1"
     inkscape:groupmode="layer"
     id="layer1">
    <rect
       style="fill:#000000"
       id="rect1"
       width="1710"
       height="1121"
       x="0"
       y="0" />
    <path
       style="fill:#e6e6e6"
       d="m 52.042269,977.84684 -8.2172,-906.631103 c 0,0 219.125341,-30.425634 219.125341,172.561203 0,200.86905 -161.60494,180.77841 -161.60494,180.77841 l 2.73907,553.29149 z"
       id="path1"
       sodipodi:nodetypes="cccccc" />
    <path
       style="fill:#000000"
       d="m 84.911068,145.17054 c 0,0 117.779872,-19.17347 109.562672,90.3892 -8.2172,109.56268 -104.084532,109.56268 -104.084532,109.56268 z"
       id="path2" />
    <path
       style="fill:#e6e6e6"
       d="m 156.12681,435.51162 -16.4344,506.72736 h 164.34401 l -2.73907,-62.99854 -117.77987,10.95627 8.2172,-457.42415 z"
       id="path3" />
    <path
       style="fill:#e6e6e6"
       d="m 216.38627,829.93724 167.08308,-723.11363 76.69387,728.59176 h -82.17201 l -21.91253,-279.38481 -41.086,-2.73907 -43.82507,271.16761 z"
       id="path4" />
    <path
       style="fill:#e6e6e6"
       d="m 610.81189,145.17054 c 0,0 -153.38774,-87.650137 -142.43147,397.16468 10.95627,484.81478 136.95334,440.98975 136.95334,440.98975 v -68.47666 c 0,0 -95.86734,76.69387 -95.86734,-372.51309 0,-449.206949 95.86734,-353.33962 95.86734,-353.33962 z"
       id="path5" />
    <path
       style="fill:#000000"
       d="m 306.77548,503.98829 62.99853,-282.12388 16.4344,287.60201 z"
       id="path6" />
    <path
       style="fill:#e6e6e6"
       d="m 635.4635,224.60348 -62.99854,2.73906 -8.2172,629.98536 62.99854,2.73907 -5.47814,-46.56413 h -43.82507 l 10.95627,-254.73322 h 43.82507 l -2.73907,-52.04226 -41.086,2.73906 5.47813,-249.25508 38.34694,5.47814 z"
       id="path7" />
    <path
       style="fill:#e6e6e6"
       d="m 703.94017,147.9096 -43.82507,903.892 h 32.8688 l 27.39067,-531.37891 76.69387,2.73906 -43.82507,525.90075 21.91253,2.7391 79.43296,-912.1092 h -30.12975 l -38.34694,336.90522 -65.7376,-2.73907 24.6516,-342.38335 z"
       id="path8" />
    <ellipse
       style="fill:#e6e6e6;stroke-width:0.818665"
       id="path9"
       cx="929.91315"
       cy="580.68213"
       rx="86.280609"
       ry="438.2507" />
    <ellipse
       style="fill:#000000;stroke-width:1.22233"
       id="path10"
       cx="929.91315"
       cy="594.3775"
       rx="62.415756"
       ry="408.12097" />
    <path
       style="fill:#e6e6e6;stroke-width:1.15097"
       d="m 1063.8536,133.68412 -12.0519,915.37848 h 120.5189 l -4.7477,-42.5881 -89.1109,-2.1206 11.5041,-875.61776 z"
       id="path11"
       sodipodi:nodetypes="ccccccc" />
    <path
       style="fill:#e6e6e6"
       d="m 1136.7127,117.77987 -8.2172,840.89351 c 0,0 156.1268,-120.51894 161.605,-473.85856 5.4781,-353.33961 -153.3878,-367.03495 -153.3878,-367.03495 z"
       id="path12" />
    <path
       style="fill:#000000"
       d="m 1153.1471,194.47374 -2.739,676.5495 c 0,0 112.3017,-95.86734 106.8236,-408.12095 -5.4782,-312.25362 -104.0846,-268.42855 -104.0846,-268.42855 z"
       id="path13" />
    <path
       style="fill:#e6e6e6"
       d="m 1380.3804,145.17054 h -71.1065 v 887.45766 h 65.7376 l -2.739,-65.73762 -43.8251,2.73906 8.2172,-479.33668 h 38.3469 v -30.12974 h -41.086 V 186.25654 h 46.5642 z"
       id="path14"
       sodipodi:nodetypes="ccccccccccccc" />
    <path
       style="fill:#e6e6e6"
       d="m 1420.1432,1011.1114 -1.9114,-854.37958 c 0,0 168.2,-11.46819 172.0227,229.36363 3.8228,240.83182 -86.0113,259.94545 -86.0113,259.94545 l 156.7318,368.8932 -68.8091,-3.8227 -135.7068,-347.86823 3.8227,349.77953 z"
       id="path15" />
    <path
       style="fill:#000000"
       d="m 1437.3454,200.69318 1.9114,403.29772 c 0,0 105.125,19.02653 105.125,-237.00909 0,-116.59318 -107.0364,-166.28863 -107.0364,-166.28863 z"
       id="path16"
       sodipodi:nodetypes="ccsc" />
  </g>
</svg>
